<svg width="25" height="25" viewBox="0 0 25 25" fill="none" xmlns="http://www.w3.org/2000/svg">
<path fill-rule="evenodd" clip-rule="evenodd" d="M2.41062 11.3281H6.68123C6.90658 8.0873 8.03369 5.45903 9.15138 3.59622C9.33608 3.28837 9.52089 3.00078 9.70187 2.73409C5.81645 3.84527 2.88347 7.21252 2.41062 11.3281ZM6.68125 13.6719H2.41062C2.88347 17.7875 5.81653 21.1548 9.70202 22.2659C9.521 21.9992 9.33613 21.7116 9.15138 21.4036C8.0337 19.5408 6.90661 16.9127 6.68125 13.6719ZM9.03166 13.6719H15.9683C15.7487 16.3836 14.7983 18.5986 13.8389 20.1978C13.3604 20.9953 12.8828 21.6339 12.5 22.0972C12.1172 21.6339 11.6396 20.9953 11.1611 20.1978C10.2017 18.5986 9.25123 16.3836 9.03166 13.6719ZM15.9684 11.3281H9.03164C9.2512 8.61634 10.2016 6.4012 11.1611 4.80206C11.6396 4.00455 12.1172 3.36586 12.5 2.90266C12.8828 3.36586 13.3604 4.00455 13.8389 4.80206C14.7984 6.4012 15.7487 8.61634 15.9684 11.3281ZM18.3187 13.6719C18.0934 16.9127 16.9662 19.5408 15.8486 21.4036C15.6639 21.7116 15.479 21.9992 15.298 22.2659C19.1834 21.1548 22.1166 17.7875 22.5894 13.6719H18.3187ZM22.5894 11.3281H18.3187C18.0934 8.0873 16.9662 5.45903 15.8486 3.59622C15.6639 3.28837 15.4791 3.00078 15.2981 2.73408C19.1836 3.84525 22.1166 7.21252 22.5894 11.3281ZM12.5 0C5.59644 0 0 5.59644 0 12.5C0 19.4036 5.59644 25 12.5 25C19.4036 25 25 19.4036 25 12.5C25 5.59644 19.4036 0 12.5 0Z" fill="white"/>
</svg>
